<?xml version="1.0" encoding="UTF-8"?>
<svg width="148px" height="148px" viewBox="0 0 148 148" version="1.1" xmlns="http://www.w3.org/2000/svg" xmlns:xlink="http://www.w3.org/1999/xlink">
    <!-- Generator: Sketch 64 (93537) - https://sketch.com -->
    <title>Artboard</title>
    <desc>Created with Sketch.</desc>
    <g id="Artboard" stroke="none" stroke-width="1" fill="none" fill-rule="evenodd">
        <rect fill="#F9F9F9" x="0" y="0" width="148" height="148"></rect>
        <g id="tiles" opacity="0.748535156" transform="translate(45.000000, 45.000000)" fill-rule="nonzero">
            <path d="M50.5825276,1 L7.41747238,1 C3.87879834,1 1,3.87879834 1,7.41747238 L1,50.5825276 C1,54.1212017 3.87879834,57 7.41747238,57 L50.5825276,57 C54.1212017,57 57,54.1212017 57,50.5825276 L57,7.41505525 C56.9975829,3.87638122 54.1212017,1 50.5825276,1 Z" id="Path" fill="#ECEFF1"></path>
            <path d="M26,41.2083333 C26,43.297963 24.297963,45 22.2083333,45 L16.7916667,45 C14.702037,45 13,43.297963 13,41.2083333 L13,35.7916667 C13,33.702037 14.702037,32 16.7916667,32 L22.2083333,32 C24.297963,32 26,33.702037 26,35.7916667 L26,41.2083333 Z" id="Path" fill="#2196F3"></path>
            <path d="M26,22.2083333 C26,24.297963 24.297963,26 22.2083333,26 L16.7916667,26 C14.702037,26 13,24.297963 13,22.2083333 L13,16.7916667 C13,14.702037 14.702037,13 16.7916667,13 L22.2083333,13 C24.297963,13 26,14.702037 26,16.7916667 L26,22.2083333 Z" id="Path" fill="#4CAF50"></path>
            <path d="M45,41.2083333 C45,43.297963 43.297963,45 41.2083333,45 L35.7916667,45 C33.702037,45 32,43.297963 32,41.2083333 L32,35.7916667 C32,33.702037 33.702037,32 35.7916667,32 L41.2083333,32 C43.297963,32 45,33.702037 45,35.7916667 L45,41.2083333 Z" id="Path" fill="#F44336"></path>
            <path d="M45,22.2083333 C45,24.297963 43.297963,26 41.2083333,26 L35.7916667,26 C33.702037,26 32,24.297963 32,22.2083333 L32,16.7916667 C32,14.702037 33.702037,13 35.7916667,13 L41.2083333,13 C43.297963,13 45,14.702037 45,16.7916667 L45,22.2083333 Z" id="Path" fill="#FFC107"></path>
            <path d="M51.3541667,58 L6.64583333,58 C2.97975,58 0,55.02025 0,51.3541667 L0,6.64583333 C0,2.97975 2.97975,0 6.64583333,0 L51.3541667,0 C55.02025,0 58,2.97975 58,6.64583333 L58,51.3541667 C58,55.02025 55.02025,58 51.3541667,58 Z M6.64583333,3.625 C4.98075,3.625 3.625,4.98075 3.625,6.64583333 L3.625,51.3541667 C3.625,53.01925 4.98075,54.375 6.64583333,54.375 L51.3541667,54.375 C53.01925,54.375 54.375,53.01925 54.375,51.3541667 L54.375,6.64583333 C54.375,4.98075 53.01925,3.625 51.3541667,3.625 L6.64583333,3.625 Z" id="Shape" stroke="#F9F9F9" stroke-width="1.5" fill="#000000"></path>
            <path d="M22.625,27 L16.375,27 C13.9625,27 12,25.0375 12,22.625 L12,16.375 C12,13.9625 13.9625,12 16.375,12 L22.625,12 C25.0375,12 27,13.9625 27,16.375 L27,22.625 C27,25.0375 25.0375,27 22.625,27 Z M16.375,15.75 C16.03,15.75 15.75,16.03 15.75,16.375 L15.75,22.625 C15.75,22.97 16.03,23.25 16.375,23.25 L22.625,23.25 C22.97,23.25 23.25,22.97 23.25,22.625 L23.25,16.375 C23.25,16.03 22.97,15.75 22.625,15.75 L16.375,15.75 Z" id="Shape" stroke="#F9F9F9" fill="#000000"></path>
            <path d="M41.625,27 L35.375,27 C32.9625,27 31,25.0375 31,22.625 L31,16.375 C31,13.9625 32.9625,12 35.375,12 L41.625,12 C44.0375,12 46,13.9625 46,16.375 L46,22.625 C46,25.0375 44.0375,27 41.625,27 Z M35.375,15.75 C35.03,15.75 34.75,16.03 34.75,16.375 L34.75,22.625 C34.75,22.97 35.03,23.25 35.375,23.25 L41.625,23.25 C41.97,23.25 42.25,22.97 42.25,22.625 L42.25,16.375 C42.25,16.03 41.97,15.75 41.625,15.75 L35.375,15.75 Z" id="Shape" stroke="#F9F9F9" fill="#000000"></path>
            <path d="M22.625,46 L16.375,46 C13.9625,46 12,44.0375 12,41.625 L12,35.375 C12,32.9625 13.9625,31 16.375,31 L22.625,31 C25.0375,31 27,32.9625 27,35.375 L27,41.625 C27,44.0375 25.0375,46 22.625,46 Z M16.375,34.75 C16.03,34.75 15.75,35.03 15.75,35.375 L15.75,41.625 C15.75,41.97 16.03,42.25 16.375,42.25 L22.625,42.25 C22.97,42.25 23.25,41.97 23.25,41.625 L23.25,35.375 C23.25,35.03 22.97,34.75 22.625,34.75 L16.375,34.75 Z" id="Shape" stroke="#F9F9F9" fill="#000000"></path>
            <path d="M41.625,46 L35.375,46 C32.9625,46 31,44.0375 31,41.625 L31,35.375 C31,32.9625 32.9625,31 35.375,31 L41.625,31 C44.0375,31 46,32.9625 46,35.375 L46,41.625 C46,44.0375 44.0375,46 41.625,46 Z M35.375,34.75 C35.03,34.75 34.75,35.03 34.75,35.375 L34.75,41.625 C34.75,41.97 35.03,42.25 35.375,42.25 L41.625,42.25 C41.97,42.25 42.25,41.97 42.25,41.625 L42.25,35.375 C42.25,35.03 41.97,34.75 41.625,34.75 L35.375,34.75 Z" id="Shape" stroke="#F9F9F9" fill="#000000"></path>
        </g>
    </g>
</svg>