<?xml version="1.0" encoding="UTF-8"?>
<svg width="148px" height="148px" viewBox="0 0 148 148" version="1.1" xmlns="http://www.w3.org/2000/svg" xmlns:xlink="http://www.w3.org/1999/xlink">
    <!-- Generator: Sketch 64 (93537) - https://sketch.com -->
    <title>Artboard</title>
    <desc>Created with Sketch.</desc>
    <g id="Artboard" stroke="none" stroke-width="1" fill="none" fill-rule="evenodd">
        <rect fill="#F9F9F9" x="0" y="0" width="148" height="148"></rect>
        <g id="magnifying-glass" opacity="0.76" transform="translate(44.000000, 44.000000)" fill-rule="nonzero">
            <g id="XMLID_1790_" transform="translate(1.000000, 9.000000)">
                <g id="XMLID_2305_" transform="translate(0.000000, 10.426296)" fill="#EFF3F3">
                    <polygon id="XMLID_2419_" points="0 0.0883865586 50 0.0883865586 50 35.1007194 0 35.1007194"></polygon>
                </g>
                <g id="XMLID_2296_" fill="#F6838D">
                    <polygon id="XMLID_2358_" points="0 0.0883865586 50 0.0883865586 50 10.514683 0 10.514683"></polygon>
                </g>
            </g>
            <g id="XMLID_135_" transform="translate(26.000000, 1.000000)">
                <g id="XMLID_1504_" transform="translate(19.813864, 19.866962)" fill="#79B2FF">
                    <path d="M4.75202503,0.0434957163 L12.8575465,8.12264868 C14.1217418,9.38273134 14.1117169,11.4545381 12.8352559,12.726729 C11.5589129,13.99892 9.48022625,14.0089122 8.21614891,12.7489471 L0.110627407,4.66979415 L4.75202503,0.0434957163 Z" id="XMLID_2352_"></path>
                </g>
                <g id="XMLID_813_" fill="#CEE3FF">
                    <ellipse id="XMLID_2316_" cx="13.1933208" cy="13.1951897" rx="13.1502728" ry="13.1074929"></ellipse>
                </g>
                <g id="XMLID_139_" transform="translate(5.307285, 5.290020)" fill="#FFFFFF">
                    <ellipse id="XMLID_838_" cx="7.88603578" cy="7.9051701" rx="7.87400594" ry="7.84839056"></ellipse>
                </g>
            </g>
            <g id="XMLID_133_" fill="#000000">
                <path d="M7.64287109,13.1926271 C7.32833984,13.1926271 7.02214844,13.3183898 6.80054688,13.5390678 C6.57894531,13.7609322 6.45146484,14.0658475 6.45146484,14.3790678 C6.45146484,14.6911017 6.57894531,14.9960169 6.80054688,15.2178814 C7.02214844,15.4385593 7.32953125,15.564322 7.64287109,15.564322 C7.95621094,15.564322 8.26359375,15.4385593 8.48519531,15.2178814 C8.70679688,14.9972034 8.83427734,14.6911017 8.83427734,14.3790678 C8.83427734,14.0658475 8.70679688,13.7609322 8.48519531,13.5390678 C8.26359375,13.3183898 7.95621094,13.1926271 7.64287109,13.1926271 Z" id="XMLID_137_"></path>
                <path d="M13.8775,13.1926271 C13.5641602,13.1926271 13.2567773,13.3183898 13.0351758,13.5390678 C12.8135742,13.7597458 12.6860937,14.0658475 12.6860937,14.3790678 C12.6860937,14.6911017 12.8135742,14.9972034 13.0351758,15.2178814 C13.2567773,15.4385593 13.5641602,15.564322 13.8775,15.564322 C14.1908398,15.564322 14.4982227,15.4385593 14.7198242,15.2178814 C14.9414258,14.9972034 15.0689062,14.6911017 15.0689062,14.3790678 C15.0689062,14.0658475 14.9414258,13.7597458 14.7198242,13.5390678 C14.4982227,13.3183898 14.1908398,13.1926271 13.8775,13.1926271 L13.8775,13.1926271 Z" id="XMLID_2300_"></path>
                <path d="M20.1121289,13.1926271 C19.7987891,13.1926271 19.4914062,13.3183898 19.2698047,13.5390678 C19.0482031,13.7609322 18.9207227,14.0658475 18.9207227,14.3790678 C18.9207227,14.6911017 19.0482031,14.9972034 19.2698047,15.2178814 C19.4925977,15.4385593 19.7987891,15.564322 20.1121289,15.564322 C20.4266602,15.564322 20.7328516,15.4385593 20.9556445,15.2178814 C21.1772461,14.9972034 21.3035352,14.6911017 21.3035352,14.3790678 C21.3035352,14.0658475 21.1772461,13.7597458 20.9556445,13.5390678 C20.7328516,13.3183898 20.4266602,13.1926271 20.1121289,13.1926271 Z" id="XMLID_2310_"></path>
                <path d="M11.1420313,39.8342712 L7.64251367,39.8342712 C6.9845,39.8342712 6.45110742,40.3655593 6.45110742,41.0207119 C6.45110742,41.6758644 6.9845,42.2071525 7.64251367,42.2071525 L11.1420313,42.2071525 C11.8000449,42.2071525 12.3334375,41.6758644 12.3334375,41.0207119 C12.3334375,40.3655593 11.7999258,39.8342712 11.1420313,39.8342712 Z" id="XMLID_2317_"></path>
                <path d="M11.1420313,46.478339 L7.64251367,46.478339 C6.9845,46.478339 6.45110742,47.0096271 6.45110742,47.6647797 C6.45110742,48.3199322 6.9845,48.8512203 7.64251367,48.8512203 L11.1420313,48.8512203 C11.8000449,48.8512203 12.3334375,48.3199322 12.3334375,47.6647797 C12.3334375,47.0096271 11.7999258,46.478339 11.1420313,46.478339 Z" id="XMLID_2318_"></path>
                <path d="M11.1420313,33.1902034 L7.64251367,33.1902034 C6.9845,33.1902034 6.45110742,33.7214915 6.45110742,34.3766441 C6.45110742,35.0317966 6.9845,35.5630847 7.64251367,35.5630847 L11.1420313,35.5630847 C11.8000449,35.5630847 12.3334375,35.0317966 12.3334375,34.3766441 C12.3334375,33.7214915 11.7999258,33.1902034 11.1420313,33.1902034 Z" id="XMLID_2319_"></path>
                <path d="M11.1420313,26.5461356 L7.64251367,26.5461356 C6.9845,26.5461356 6.45110742,27.0773051 6.45110742,27.7325763 C6.45110742,28.3878475 6.9845,28.9190169 7.64251367,28.9190169 L11.1420313,28.9190169 C11.8000449,28.9190169 12.3334375,28.3878475 12.3334375,27.7325763 C12.3334375,27.0773051 11.7999258,26.5461356 11.1420313,26.5461356 L11.1420313,26.5461356 Z" id="XMLID_2347_"></path>
                <path d="M17.1387363,42.2071525 L44.3027988,42.2071525 C44.9608125,42.2071525 45.4942051,41.6758644 45.4942051,41.0207119 C45.4942051,40.3655593 44.9608125,39.8342712 44.3027988,39.8342712 L17.1387363,39.8342712 C16.4807227,39.8342712 15.9473301,40.3655593 15.9473301,41.0207119 C15.9473301,41.6758644 16.4807227,42.2071525 17.1387363,42.2071525 Z" id="XMLID_2349_"></path>
                <path d="M17.1387363,48.8512203 L44.3027988,48.8512203 C44.9608125,48.8512203 45.4942051,48.3199322 45.4942051,47.6647797 C45.4942051,47.0096271 44.9608125,46.478339 44.3027988,46.478339 L17.1387363,46.478339 C16.4807227,46.478339 15.9473301,47.0096271 15.9473301,47.6647797 C15.9473301,48.3199322 16.4807227,48.8512203 17.1387363,48.8512203 Z" id="XMLID_2350_"></path>
                <path d="M17.1387363,35.5630847 L44.3027988,35.5630847 C44.9608125,35.5630847 45.4942051,35.0317966 45.4942051,34.3766441 C45.4942051,33.7214915 44.9608125,33.1902034 44.3027988,33.1902034 L17.1387363,33.1902034 C16.4807227,33.1902034 15.9473301,33.7214915 15.9473301,34.3766441 C15.9473301,35.0317966 16.4807227,35.5630847 17.1387363,35.5630847 Z" id="XMLID_2351_"></path>
                <path d="M59.7000566,28.5960678 L52.091498,21.0192203 C53.092041,19.0612373 53.6567676,16.8469831 53.6567676,14.5036441 C53.6567676,6.55508475 47.1630078,0.0883898305 39.1811816,0.0883898305 C33.5327246,0.0883898305 28.6303262,3.32725424 26.2462031,8.03754237 L1.19140625,8.03754237 C0.533392578,8.03754237 -6.77236045e-15,8.56871186 -6.77236045e-15,9.22398305 L-6.77236045e-15,19.664661 L-6.77236045e-15,54.7252881 C-6.77236045e-15,55.3804407 0.533392578,55.9117288 1.19140625,55.9117288 L20.6113281,55.9117288 C21.2693418,55.9117288 21.8027344,55.3804407 21.8027344,54.7252881 C21.8027344,54.0701356 21.2693418,53.5388475 20.6113281,53.5388475 L2.3828125,53.5388475 L2.3828125,20.8512203 L26.1868711,20.8512203 C27.3322891,23.1671525 29.0837754,25.1341525 31.2341445,26.5461356 L17.1387363,26.5461356 C16.4807227,26.5461356 15.9473301,27.0773051 15.9473301,27.7325763 C15.9473301,28.3878475 16.4807227,28.9190169 17.1387363,28.9190169 L39.1811816,28.9190169 C41.5311113,28.9190169 43.7516543,28.3580678 45.7158066,27.3643051 L49.5625,31.1948475 L49.5625,53.5388475 L31.3339844,53.5388475 C30.6759707,53.5388475 30.1425781,54.0701356 30.1425781,54.7252881 C30.1425781,55.3804407 30.6759707,55.9117288 31.3339844,55.9117288 L50.7539062,55.9117288 C51.4119199,55.9117288 51.9453125,55.3804407 51.9453125,54.7252881 L51.9453125,33.5677288 L53.3265098,34.9431695 C54.165498,35.778661 55.2848242,36.2379322 56.4807578,36.2379322 C56.4881445,36.2379322 56.4956504,36.2378136 56.5031562,36.2378136 C57.7031406,36.232 58.8304492,35.7643051 59.6775391,34.9207458 C60.5246289,34.0771864 60.9944004,32.9545763 61.0002908,31.7594746 C61.005957,30.5602203 60.5442871,29.4367797 59.7000566,28.5960678 L59.7000566,28.5960678 Z M25.2654375,18.478339 L2.3828125,18.478339 L2.3828125,10.4105424 L25.3009414,10.4105424 C24.9142109,11.7087458 24.7055957,13.0822881 24.7055957,14.5037627 C24.7055957,15.8818136 24.9011055,17.2152542 25.2654375,18.478339 Z M39.1811816,26.5461356 C32.5132383,26.5461356 27.0884082,21.1439153 27.0884082,14.5037627 C27.0884082,7.86361017 32.5132383,2.46138983 39.1811816,2.46138983 C45.849125,2.46138983 51.2739551,7.86361017 51.2739551,14.5037627 C51.2739551,21.1439153 45.849125,26.5461356 39.1811816,26.5461356 Z M57.9926523,33.2428814 C57.5925781,33.6412881 57.0594238,33.862322 56.4915996,33.8649322 C56.4881445,33.8650508 56.4845703,33.8650508 56.4809961,33.8650508 C55.9215117,33.8650508 55.3999141,33.6522034 55.0113965,33.2651864 L47.7965977,26.0804576 C48.9386797,25.2353559 49.9519707,24.227 50.8012051,23.0902712 L58.0150508,30.2740508 C58.4061895,30.6634407 58.6200469,31.1870169 58.6173327,31.7480847 C58.6146855,32.313661 58.3928457,32.8444746 57.9926523,33.2428814 L57.9926523,33.2428814 Z" id="XMLID_2377_"></path>
                <path d="M39.1811816,5.39616949 C34.1383164,5.39616949 30.0355898,9.48179661 30.0355898,14.5036441 C30.0355898,19.5254915 34.1383164,23.6111186 39.1811816,23.6111186 C44.2240469,23.6111186 48.3267734,19.5254915 48.3267734,14.5036441 C48.3267734,9.48179661 44.2240469,5.39616949 39.1811816,5.39616949 Z M39.1811816,21.2383559 C35.4521992,21.2383559 32.4184023,18.2172034 32.4184023,14.5037627 C32.4184023,10.790322 35.4521992,7.76916949 39.1811816,7.76916949 C42.9101641,7.76916949 45.9439609,10.790322 45.9439609,14.5037627 C45.9439609,18.2172034 42.9101641,21.2383559 39.1811816,21.2383559 Z" id="XMLID_2398_"></path>
                <path d="M25.9726563,53.5387288 C25.6593164,53.5387288 25.3519336,53.665678 25.130332,53.8863559 C24.9087305,54.1070339 24.78125,54.4131356 24.78125,54.7251695 C24.78125,55.0372034 24.9087305,55.3433051 25.130332,55.5639831 C25.3519336,55.7845424 25.6593164,55.9116102 25.9726563,55.9116102 C26.2859961,55.9116102 26.5933789,55.784661 26.8149805,55.5639831 C27.036582,55.3433051 27.1640625,55.0372034 27.1640625,54.7251695 C27.1640625,54.4131356 27.036582,54.1070339 26.8149805,53.8863559 C26.5933789,53.6657966 26.2859961,53.5387288 25.9726563,53.5387288 Z" id="XMLID_2402_"></path>
            </g>
        </g>
    </g>
</svg>