<?xml version="1.0" encoding="UTF-8"?>
<svg width="148px" height="148px" viewBox="0 0 148 148" version="1.1" xmlns="http://www.w3.org/2000/svg" xmlns:xlink="http://www.w3.org/1999/xlink">
    <!-- Generator: Sketch 64 (93537) - https://sketch.com -->
    <title>Artboard</title>
    <desc>Created with Sketch.</desc>
    <g id="Artboard" stroke="none" stroke-width="1" fill="none" fill-rule="evenodd">
        <rect fill="#F9F9F9" x="0" y="0" width="148" height="148"></rect>
        <g id="link" opacity="0.76" transform="translate(48.000000, 49.000000)" fill-rule="nonzero">
            <path d="M34.142859,34.1137878 L39,26.8183678 L34.142859,25.5779036 C33.5065846,23.6858414 32.4246982,21.8986295 30.8975997,20.3849401 C29.391597,18.8921613 27.6100488,17.7988641 25.6586341,17.1681767 L25.5949466,17.2313049 L19.677315,17 L17.0471343,17.1681767 C15.0958195,17.7988641 13.3141713,18.8921613 11.8081686,20.3849401 L3.94512109,28.178944 C-1.31504036,33.3929172 -1.31504036,41.8669616 3.94512109,47.0809347 C9.35375323,52.4420749 17.9016656,52.1688497 23.0345522,47.0809347 L30.8975997,39.3067513 C32.4248982,37.7928637 33.5066846,36.0059491 34.142859,34.1137878 Z M17.7319991,41.824744 C15.3563681,44.1795151 11.5598177,44.116486 9.24777416,41.824744 C6.9146348,39.5120914 6.9146348,35.7276697 9.24777416,33.4150171 L17.0471343,25.7039618 L21.3104925,29.887766 L25.5950466,34.0505605 L17.7319991,41.824744 Z" id="Shape" stroke="#000000" stroke-width="2" fill="#4A696F"></path>
            <path d="M41.5,43.5707833 L39.4292136,41.4999817 C38.8569288,40.9276928 38.8569288,40.001469 39.4292136,39.4291801 C40.0014983,38.8569888 40.9277153,38.8568912 41.5,39.4291801 L43.5707864,41.4999817 C44.1430712,42.0722706 44.1430712,42.9984944 43.5707864,43.5707833 C42.9984041,44.1430722 42.0722847,44.1430722 41.5,43.5707833 Z" id="Path" fill="#D2C5C2"></path>
            <path d="M9.50019523,11.5708865 L7.42923032,9.5 C6.85692323,8.92767982 6.85692323,8.00141541 7.42923032,7.42919895 C8.00153741,6.85698249 8.92779052,6.85688488 9.5,7.42919895 L11.5707697,9.5 C12.1430768,10.072308 12.1430768,10.9985724 11.5707697,11.5707888 C10.9984626,12.1430053 10.0724047,12.1431029 9.50019523,11.5708865 Z" id="Path" fill="#DFD7D5"></path>
            <path d="M44.0521061,30.1775706 C44.2701836,29.3297861 45.1067917,28.8275521 45.9212259,29.0545314 L48.8693413,29.8770136 C49.6838772,30.0996524 50.1642784,30.9747507 49.9483369,31.8224294 C49.7302594,32.6702139 48.8936513,33.1724479 48.0792171,32.9454686 L45.1311017,32.1229864 C44.3219567,31.8975951 43.8338251,31.030331 44.0521061,30.1775706 Z" id="Path" fill="#D2C5C2"></path>
            <path d="M1.05213924,19.1775395 C1.27021046,18.3297774 2.10679429,17.8275566 2.92120484,18.0545299 L5.86923474,18.8770963 C6.68059392,19.0985646 7.16515142,19.9737456 6.94819904,20.8224605 C6.73012783,21.6702226 5.89354399,22.1724434 5.07913344,21.9454701 L2.13110354,21.1229037 C1.32198203,20.8975184 0.833762888,20.0302772 1.05213924,19.1775395 Z" id="Path" fill="#DFD7D5"></path>
            <path d="M29.8771195,48.8690755 L29.0545314,45.9214217 C28.8275521,45.1070134 29.3297861,44.270638 30.1775706,44.0525946 C31.0253552,43.8345512 31.8949484,44.3138602 32.1229864,45.1314212 L32.9454686,48.079075 C33.1724479,48.8934833 32.6702139,49.7298587 31.8224294,49.9479021 C30.9698808,50.1661489 30.1025108,49.6780937 29.8771195,48.8690755 Z" id="Path" fill="#D2C5C2"></path>
            <path d="M18.8770963,5.8690047 L18.0545299,2.92095108 C17.8275566,2.10643227 18.3297774,1.26994341 19.1775395,1.05187044 C20.0253016,0.835933449 20.8969891,1.3131715 21.1229037,2.13084342 L21.9454701,5.07889704 C22.1724434,5.89341586 21.6702226,6.72990471 20.8224605,6.94797768 C19.9698286,7.16605065 19.1025875,6.6779293 18.8770963,5.8690047 Z" id="Path" fill="#DFD7D5"></path>
            <path d="M47.0369902,3.93795538 C41.753111,-1.30203936 33.1666567,-1.32325351 27.8614862,3.93795538 L19.9629847,11.7509377 C18.4290006,13.2721815 17.3423365,15.0681137 16.7030928,16.9698179 C15.7655688,19.7589309 15.7656692,22.7591894 16.7031932,25.5483024 C17.3423365,27.4498074 18.4290006,29.2460384 19.9629847,30.7672822 C21.4544864,32.2463965 23.244168,33.3449509 25.2256729,34 L25.2895471,33.9366563 C27.6333068,31.6123623 27.6332064,27.8091532 25.2895471,25.4849588 C22.9458877,23.1607643 22.9458877,19.3574556 25.2895471,17.0332612 L33.1880486,9.22027882 C34.3386873,8.07919656 35.8300886,7.48769028 37.4494391,7.48769028 C37.4919214,7.44556077 37.8540758,7.46657572 37.9394422,7.50880483 C39.0899805,7.50870523 40.6025728,8.12142567 41.7105283,9.22027882 C44.0541876,11.5444732 44.054288,15.3476824 41.7105283,17.6719764 L33.8761018,25.4214159 C34.8136258,28.2105289 34.8136258,31.210887 33.8761018,34 C35.8148231,33.3450505 37.6472883,32.2462969 39.1386896,30.7671826 L47.0371911,22.9542003 C52.3210702,17.7141059 52.3208694,9.17795012 47.0369902,3.93795538 Z" id="Path" stroke="#000000" stroke-width="2" fill="#FFD400"></path>
        </g>
    </g>
</svg>