<?xml version="1.0" encoding="UTF-8"?>
<svg width="148px" height="148px" viewBox="0 0 148 148" version="1.1" xmlns="http://www.w3.org/2000/svg" xmlns:xlink="http://www.w3.org/1999/xlink">
    <!-- Generator: Sketch 64 (93537) - https://sketch.com -->
    <title>Artboard</title>
    <desc>Created with Sketch.</desc>
    <g id="Artboard" stroke="none" stroke-width="1" fill="none" fill-rule="evenodd">
        <rect fill="#F9F9F9" x="0" y="0" width="148" height="148"></rect>
        <g id="people" opacity="0.76" transform="translate(44.000000, 42.000000)" fill-rule="nonzero">
            <g id="Group" transform="translate(1.000000, 1.000000)">
                <path d="M17.6016667,9.83333333 L7.965,9.83333333 C8.41733333,7.59133333 10.4036667,5.9 12.7833333,5.9 C15.163,5.9 17.1493333,7.59133333 17.6016667,9.83333333 Z" id="Path" fill="#656D78"></path>
                <path d="M34.3183333,3.93333333 L24.6816667,3.93333333 C25.134,1.69133333 27.1203333,0 29.5,0 C31.8796667,0 33.866,1.69133333 34.3183333,3.93333333 Z" id="Path" fill="#B27946"></path>
                <path d="M47.613,6.09666667 C49.3436667,6.608 50.6711667,8.04366667 51.035,9.83333333 L41.3983333,9.83333333 C41.8506667,7.59133333 43.837,5.9 46.2166667,5.9 C46.6985,5.9 47.1705,5.96883333 47.613,6.09666667 L47.613,6.09666667 Z" id="Path" fill="#E6E9ED"></path>
                <path d="M55.0666667,7.86666667 C55.0666667,10.0398333 53.3065,11.8 51.1333333,11.8 C51.1038333,11.8 51.0645,11.8 51.035,11.8 C51.1038333,11.4853333 51.1333333,11.151 51.1333333,10.8166667 C51.1333333,10.4823333 51.1038333,10.148 51.035,9.83333333 C50.6711667,8.04366667 49.3436667,6.608 47.613,6.09666667 C48.2718333,4.81833333 49.5993333,3.93333333 51.1333333,3.93333333 C53.3065,3.93333333 55.0666667,5.6935 55.0666667,7.86666667 Z" id="Path" fill="#E6E9ED"></path>
                <path d="M9.83333333,16.7166667 C9.83333333,18.349 11.151,19.6666667 12.7833333,19.6666667 L5.99833333,19.6666667 C6.38183333,17.7393333 7.906,16.225 9.83333333,15.8316667 L9.83333333,16.7166667 Z" id="Path" fill="#B4DD7F"></path>
                <path d="M19.6371667,20.1288333 C19.2831667,20.9056667 19.0275,21.7316667 18.8701667,22.597 C17.8376667,20.8466667 15.9398333,19.6666667 13.7666667,19.6666667 L12.7833333,19.6666667 C13.5995,19.6666667 14.337,19.3323333 14.868,18.8013333 C15.399,18.2703333 15.7333333,17.5328333 15.7333333,16.7166667 L15.7333333,15.8316667 C17.8081667,16.2545 19.411,17.9851667 19.6371667,20.1288333 L19.6371667,20.1288333 Z" id="Path" fill="#B4DD7F"></path>
                <path d="M53.1,20.65 L53.1,21.594 C51.9003333,20.4041667 50.2581667,19.6666667 48.4291667,19.6666667 L46.2166667,19.6666667 C47.0328333,19.6666667 47.7703333,19.3323333 48.3013333,18.8013333 C48.8323333,18.2703333 49.1666667,17.5328333 49.1666667,16.7166667 L49.1666667,15.8316667 C51.4086667,16.284 53.1,18.2703333 53.1,20.65 Z" id="Path" fill="#B4DD7F"></path>
                <path d="M46.2166667,19.6666667 L45.9708333,19.6666667 C43.5026667,19.6666667 41.3491667,21.0138333 40.2085,23.0198333 L40.1986667,23.0198333 C40.061,22.007 39.766,21.0335 39.3628333,20.1288333 C39.589,17.9851667 41.1918333,16.2545 43.2666667,15.8316667 L43.2666667,16.7166667 C43.2666667,18.349 44.5843333,19.6666667 46.2166667,19.6666667 L46.2166667,19.6666667 Z" id="Path" fill="#B4DD7F"></path>
                <path d="M26.55,10.8166667 C26.55,12.449 27.8676667,13.7666667 29.5,13.7666667 C26.8843333,13.7666667 24.485,14.691 22.6166667,16.2348333 L22.6166667,14.75 C22.6166667,12.3703333 24.308,10.384 26.55,9.93166667 L26.55,10.8166667 Z" id="Path" fill="#FF826E"></path>
                <path d="M36.3833333,14.75 L36.3833333,16.2348333 C34.515,14.691 32.1156667,13.7666667 29.5,13.7666667 C30.3161667,13.7666667 31.0536667,13.4323333 31.5846667,12.9013333 C32.1156667,12.3703333 32.45,11.6328333 32.45,10.8166667 L32.45,9.93166667 C33.4136667,10.1283333 34.279,10.6003333 34.9476667,11.269 C35.8326667,12.1638333 36.3833333,13.393 36.3833333,14.75 Z" id="Path" fill="#FF826E"></path>
                <path d="M7.20783333,42.6078333 L9.50883333,46.8755 L11.8,51.1333333 L11.8,59 L3.93333333,59 L0,59 L0,45.666 C0,43.5321667 1.003,41.536 2.70416667,40.2576667 C3.47116667,39.6775 4.35616667,39.2743333 5.30016667,39.0678333 L7.20783333,42.6078333 Z" id="Path" fill="#FF826E"></path>
                <path d="M15.7333333,51.1333333 L15.7333333,59 L11.8,59 L11.8,51.1333333 L13.7666667,47.4851667 L13.7666667,50.15 C13.7666667,50.6908333 14.2091667,51.1333333 14.75,51.1333333 L15.7333333,51.1333333 Z" id="Path" fill="#FF826E"></path>
                <path d="M10.8166667,44.25 L14.0911667,44.25 C13.8846667,45.0563333 13.7666667,45.9118333 13.7666667,46.787 L13.7666667,47.4851667 L11.8,51.1333333 L9.50883333,46.8755 L10.8166667,44.25 Z" id="Path" fill="#E6E9ED"></path>
                <path d="M11.8,40.3166667 L15.045,41.9391667 C14.632,42.657 14.3173333,43.4338333 14.101,44.25 L14.0911667,44.25 L10.8166667,44.25 L9.83333333,41.3 L11.8,40.3166667 Z" id="Path" fill="#CCD1D9"></path>
                <polygon id="Path" fill="#FCD770" points="10.8166667 44.25 9.50883333 46.8755 7.20783333 42.6078333 9.83333333 41.3"></polygon>
                <path d="M14.75,38.35 L17.6803333,38.94 C16.5986667,39.7463333 15.7038333,40.769 15.045,41.9391667 L11.8,40.3166667 L14.75,38.35 Z" id="Path" fill="#FFC729"></path>
                <path d="M11.8,40.3166667 L9.83333333,41.3 L7.20783333,42.6078333 L5.30016667,39.0678333 C5.34933333,39.0481667 5.38866667,39.0383333 5.43783333,39.0285 L8.85,38.35 L11.8,40.3166667 Z" id="Path" fill="#FFC729"></path>
                <path d="M18.6833333,30.031 C18.3195,30.68 17.8573333,31.27 17.3165,31.7813333 L16.6183333,32.45 C16.6871667,32.1353333 16.7166667,31.801 16.7166667,31.4666667 L16.7166667,29.618 C16.7166667,27.8185 15.4875,26.2451667 13.7371667,25.8026667 L13.0881667,25.6453333 L13.0783333,25.6355 C12.5571667,26.3336667 11.7705,26.8351667 10.8461667,26.963 L8.57466667,27.2875 C7.60116667,27.435 6.88333333,28.261 6.88333333,29.2345 L6.88333333,31.4666667 C6.88333333,31.801 6.91283333,32.1353333 6.98166667,32.45 L6.2835,31.7813333 C5.38866667,30.9258333 4.71016667,29.8736667 4.31683333,28.6936667 C4.06116667,27.9266667 3.93333333,27.1203333 3.93333333,26.3041667 L3.93333333,21.6333333 C3.93333333,20.5516667 4.81833333,19.6666667 5.9,19.6666667 L5.99833333,19.6666667 L12.7833333,19.6666667 L13.7666667,19.6666667 C15.9398333,19.6666667 17.8376667,20.8466667 18.8701667,22.597 C18.7423333,23.246 18.6833333,23.9048333 18.6833333,24.5833333 L18.6833333,30.031 Z" id="Path" fill="#B27946"></path>
                <path d="M52.1166667,29.2345 C52.1166667,28.261 51.3988333,27.435 50.4253333,27.2875 L48.1538333,26.963 C47.2295,26.8351667 46.4428333,26.3336667 45.9216667,25.6355 L45.9118333,25.6453333 L45.2628333,25.8026667 C43.5125,26.2451667 42.2833333,27.8185 42.2833333,29.618 L42.2833333,31.4666667 C42.2833333,31.801 42.3128333,32.1353333 42.3816667,32.45 L41.6835,31.7813333 C41.1426667,31.27 40.6805,30.68 40.3166667,30.031 L40.3166667,24.5833333 C40.3166667,24.0523333 40.2773333,23.5311667 40.1986667,23.0198333 L40.2085,23.0198333 C41.3491667,21.0138333 43.5026667,19.6666667 45.9708333,19.6666667 L46.2166667,19.6666667 L48.4291667,19.6666667 C50.2581667,19.6666667 51.9003333,20.4041667 53.1,21.594 C54.3193333,22.7936667 55.0666667,24.4653333 55.0666667,26.3041667 C55.0666667,27.1203333 54.9388333,27.9266667 54.6831667,28.6936667 C54.2898333,29.8736667 53.6113333,30.9258333 52.7165,31.7813333 L52.0183333,32.45 C52.0871667,32.1353333 52.1166667,31.801 52.1166667,31.4666667 L52.1166667,29.2345 Z" id="Path" fill="#B27946"></path>
                <path d="M55.0666667,59 L47.2,59 L47.2,51.1333333 L49.4911667,46.8755 L51.7921667,42.6078333 L53.6998333,39.0678333 C54.6438333,39.2743333 55.5288333,39.6775 56.2958333,40.2576667 C57.1513333,40.8968333 57.82,41.713 58.2821667,42.6373333 C58.7443333,43.5616667 59,44.604 59,45.666 L59,59 L55.0666667,59 Z" id="Path" fill="#E6E9ED"></path>
                <path d="M47.2,51.1333333 L47.2,59 L43.2666667,59 L43.2666667,51.1333333 L44.25,51.1333333 C44.7908333,51.1333333 45.2333333,50.6908333 45.2333333,50.15 L45.2333333,47.4851667 L47.2,51.1333333 Z" id="Path" fill="#E6E9ED"></path>
                <path d="M48.1833333,44.25 L49.4911667,46.8755 L47.2,51.1333333 L45.2333333,47.4851667 L45.2333333,46.787 C45.2333333,45.9118333 45.1153333,45.0563333 44.9088333,44.25 L48.1833333,44.25 Z" id="Path" fill="#FCD770"></path>
                <path d="M49.1666667,41.3 L48.1833333,44.25 L44.9088333,44.25 L44.899,44.25 C44.6826667,43.4338333 44.368,42.657 43.955,41.9391667 L47.2,40.3166667 L49.1666667,41.3 Z" id="Path" fill="#FFC729"></path>
                <polygon id="Path" fill="#FF826E" points="51.7921667 42.6078333 49.4911667 46.8755 48.1833333 44.25 49.1666667 41.3"></polygon>
                <path d="M53.6998333,39.0678333 L51.7921667,42.6078333 L49.1666667,41.3 L47.2,40.3166667 L50.15,38.35 L53.5621667,39.0285 C53.6113333,39.0383333 53.6506667,39.0481667 53.6998333,39.0678333 Z" id="Path" fill="#FC6E51"></path>
                <path d="M47.2,40.3166667 L43.955,41.9391667 C43.2961667,40.769 42.4013333,39.7463333 41.3196667,38.94 L44.25,38.35 L47.2,40.3166667 Z" id="Path" fill="#FC6E51"></path>
                <path d="M21.6333333,56.05 L21.6333333,59 L15.7333333,59 L15.7333333,51.1333333 L19.8731667,51.1333333 C20.0108333,51.8118333 20.2075,52.4706667 20.4631667,53.1196667 L21.6333333,56.05 Z" id="Path" fill="#F0D0B4"></path>
                <path d="M43.2666667,51.1333333 L43.2666667,59 L37.3666667,59 L37.3666667,56.05 L38.5368333,53.1196667 C38.7925,52.4706667 38.9891667,51.8118333 39.1268333,51.1333333 L43.2666667,51.1333333 Z" id="Path" fill="#F0D0B4"></path>
                <path d="M19.8731667,51.1333333 L15.7333333,51.1333333 L14.75,51.1333333 C14.2091667,51.1333333 13.7666667,50.6908333 13.7666667,50.15 L13.7666667,47.4851667 L13.7666667,46.787 C13.7666667,45.9118333 13.8846667,45.0563333 14.0911667,44.25 L14.101,44.25 C14.3173333,43.4338333 14.632,42.657 15.045,41.9391667 C15.7038333,40.769 16.5986667,39.7463333 17.6803333,38.94 C17.995,38.6941667 18.3391667,38.468 18.6931667,38.2811667 C19.7256667,37.6813333 20.8761667,37.2683333 22.1053333,37.0716667 L22.9215,36.9438333 L25.7928333,42.2833333 L29.5,49.1666667 L29.5,59 L21.6333333,59 L21.6333333,56.05 L20.4631667,53.1196667 C20.2075,52.4706667 20.0108333,51.8118333 19.8731667,51.1333333 L19.8731667,51.1333333 Z" id="Path" fill="#B4DD7F"></path>
                <path d="M39.1268333,51.1333333 C38.9891667,51.8118333 38.7925,52.4706667 38.5368333,53.1196667 L37.3666667,56.05 L37.3666667,59 L29.5,59 L29.5,49.1666667 L33.2071667,42.2833333 L36.0785,36.9438333 L36.8946667,37.0716667 C38.1238333,37.2683333 39.2743333,37.6813333 40.3068333,38.2811667 C40.6608333,38.468 41.005,38.6941667 41.3196667,38.94 C42.4013333,39.7463333 43.2961667,40.769 43.955,41.9391667 C44.368,42.657 44.6826667,43.4338333 44.899,44.25 L44.9088333,44.25 C45.1153333,45.0563333 45.2333333,45.9118333 45.2333333,46.787 L45.2333333,47.4851667 L45.2333333,50.15 C45.2333333,50.6908333 44.7908333,51.1333333 44.25,51.1333333 L43.2666667,51.1333333 L39.1268333,51.1333333 Z" id="Path" fill="#B4DD7F"></path>
                <polygon id="Path" fill="#FFEAA7" points="33.2071667 42.2833333 29.5 49.1666667 25.7928333 42.2833333"></polygon>
                <path d="M29.5,19.6666667 C28.2413333,21.5546667 26.2845,22.8625 24.0523333,23.3148333 L22.6166667,23.6 L22.6166667,27.5333333 C22.6166667,30.267 24.2195,32.6368333 26.55,33.748 L26.55,33.8561667 C26.55,35.3115 25.488,36.5505 24.0523333,36.7668333 L22.9215,36.9438333 L22.1053333,37.0716667 C20.8761667,37.2683333 19.7256667,37.6813333 18.6931667,38.2811667 L18.6833333,38.2713333 L18.6833333,30.031 L18.6833333,24.5833333 C18.6833333,23.9048333 18.7423333,23.246 18.8701667,22.597 C19.0275,21.7316667 19.2831667,20.9056667 19.6371667,20.1288333 C20.3255,18.6046667 21.3481667,17.2771667 22.6166667,16.2348333 C24.485,14.691 26.8843333,13.7666667 29.5,13.7666667 C32.1156667,13.7666667 34.515,14.691 36.3833333,16.2348333 C36.6488333,16.4511667 36.9045,16.6871667 37.1503333,16.933 C38.0648333,17.8475 38.822,18.9291667 39.3628333,20.1288333 C39.766,21.0335 40.061,22.007 40.1986667,23.0198333 C40.2773333,23.5311667 40.3166667,24.0523333 40.3166667,24.5833333 L40.3166667,30.031 L40.3166667,38.2713333 L40.3068333,38.2811667 C39.2743333,37.6813333 38.1238333,37.2683333 36.8946667,37.0716667 L36.0785,36.9438333 L34.9476667,36.7668333 C33.512,36.5505 32.45,35.3115 32.45,33.8561667 L32.45,33.8266667 C34.7706667,32.7745 36.3833333,30.444 36.3833333,27.7398333 L36.3833333,23.6 L34.9476667,23.3148333 C33.8266667,23.0886667 32.7843333,22.6461667 31.86,22.0266667 C30.9356667,21.4071667 30.1293333,20.6106667 29.5,19.6666667 L29.5,19.6666667 Z" id="Path" fill="#656D78"></path>
                <path d="M15.7333333,15.8316667 L15.7333333,16.7166667 C15.7333333,17.5328333 15.399,18.2703333 14.868,18.8013333 C14.337,19.3323333 13.5995,19.6666667 12.7833333,19.6666667 C11.151,19.6666667 9.83333333,18.349 9.83333333,16.7166667 L9.83333333,15.8316667 C10.148,15.7628333 10.4823333,15.7333333 10.8166667,15.7333333 L12.7833333,15.7333333 L14.75,15.7333333 C15.0843333,15.7333333 15.4186667,15.7628333 15.7333333,15.8316667 Z" id="Path" fill="#F0D0B4"></path>
                <path d="M17.6016667,9.83333333 C17.6705,10.148 17.7,10.4823333 17.7,10.8166667 C17.7,13.5306667 15.4973333,15.7333333 12.7833333,15.7333333 C10.0693333,15.7333333 7.86666667,13.5306667 7.86666667,10.8166667 C7.86666667,10.4823333 7.89616667,10.148 7.965,9.83333333 L17.6016667,9.83333333 Z" id="Path" fill="#F0D0B4"></path>
                <path d="M32.45,9.93166667 L32.45,10.8166667 C32.45,11.6328333 32.1156667,12.3703333 31.5846667,12.9013333 C31.0536667,13.4323333 30.3161667,13.7666667 29.5,13.7666667 C27.8676667,13.7666667 26.55,12.449 26.55,10.8166667 L26.55,9.93166667 C26.8646667,9.86283333 27.199,9.83333333 27.5333333,9.83333333 L29.5,9.83333333 L31.4666667,9.83333333 C31.801,9.83333333 32.1353333,9.86283333 32.45,9.93166667 Z" id="Path" fill="#F0D0B4"></path>
                <path d="M34.3183333,3.93333333 C34.3871667,4.248 34.4166667,4.58233333 34.4166667,4.91666667 C34.4166667,7.63066667 32.214,9.83333333 29.5,9.83333333 C26.786,9.83333333 24.5833333,7.63066667 24.5833333,4.91666667 C24.5833333,4.58233333 24.6128333,4.248 24.6816667,3.93333333 L34.3183333,3.93333333 Z" id="Path" fill="#F0D0B4"></path>
                <path d="M49.1666667,15.8316667 L49.1666667,16.7166667 C49.1666667,17.5328333 48.8323333,18.2703333 48.3013333,18.8013333 C47.7703333,19.3323333 47.0328333,19.6666667 46.2166667,19.6666667 C44.5843333,19.6666667 43.2666667,18.349 43.2666667,16.7166667 L43.2666667,15.8316667 C43.5813333,15.7628333 43.9156667,15.7333333 44.25,15.7333333 L46.2166667,15.7333333 L48.1833333,15.7333333 C48.5176667,15.7333333 48.852,15.7628333 49.1666667,15.8316667 Z" id="Path" fill="#F0D0B4"></path>
                <path d="M51.035,11.8 C50.5826667,14.042 48.5963333,15.7333333 46.2166667,15.7333333 C43.5026667,15.7333333 41.3,13.5306667 41.3,10.8166667 C41.3,10.4823333 41.3295,10.148 41.3983333,9.83333333 L51.035,9.83333333 C51.1038333,10.148 51.1333333,10.4823333 51.1333333,10.8166667 C51.1333333,11.151 51.1038333,11.4853333 51.035,11.8 L51.035,11.8 Z" id="Path" fill="#F0D0B4"></path>
                <path d="M47.2,36.3833333 C48.0358333,36.3833333 48.8225,36.1768333 49.5108333,35.8031667 L50.15,38.35 L47.2,40.3166667 L44.25,38.35 L44.8891667,35.8031667 L47.2,36.3833333 Z" id="Path" fill="#F0D0B4"></path>
                <path d="M45.9216667,25.6355 C46.4428333,26.3336667 47.2295,26.8351667 48.1538333,26.963 L50.4253333,27.2875 C51.3988333,27.435 52.1166667,28.261 52.1166667,29.2345 L52.1166667,31.4666667 C52.1166667,31.801 52.0871667,32.1353333 52.0183333,32.45 C51.7233333,33.9053333 50.7891667,35.1246667 49.5108333,35.8031667 C48.8225,36.1768333 48.0358333,36.3833333 47.2,36.3833333 L44.8891667,35.8031667 C44.4565,35.577 44.0631667,35.2918333 43.719,34.9476667 C43.0503333,34.2691667 42.5783333,33.4136667 42.3816667,32.45 C42.3128333,32.1353333 42.2833333,31.801 42.2833333,31.4666667 L42.2833333,29.618 C42.2833333,27.8185 43.5125,26.2451667 45.2628333,25.8026667 L45.9118333,25.6453333 L45.9216667,25.6355 Z" id="Path" fill="#F0D0B4"></path>
                <path d="M14.75,38.35 L11.8,40.3166667 L8.85,38.35 L9.48916667,35.8031667 C10.1775,36.1768333 10.9641667,36.3833333 11.8,36.3833333 L14.1108333,35.8031667 L14.75,38.35 Z" id="Path" fill="#F0D0B4"></path>
                <path d="M13.7371667,25.8026667 C15.4875,26.2451667 16.7166667,27.8185 16.7166667,29.618 L16.7166667,31.4666667 C16.7166667,31.801 16.6871667,32.1353333 16.6183333,32.45 C16.4216667,33.4136667 15.9496667,34.2691667 15.281,34.9476667 C14.9368333,35.2918333 14.5435,35.577 14.1108333,35.8031667 L11.8,36.3833333 C10.9641667,36.3833333 10.1775,36.1768333 9.48916667,35.8031667 C8.21083333,35.1246667 7.27666667,33.9053333 6.98166667,32.45 C6.91283333,32.1353333 6.88333333,31.801 6.88333333,31.4666667 L6.88333333,29.2345 C6.88333333,28.261 7.60116667,27.435 8.57466667,27.2875 L10.8461667,26.963 C11.7705,26.8351667 12.5571667,26.3336667 13.0783333,25.6355 L13.0881667,25.6453333 L13.7371667,25.8026667 Z" id="Path" fill="#F0D0B4"></path>
                <path d="M36.0785,36.9438333 L33.2071667,42.2833333 L25.7928333,42.2833333 L22.9215,36.9438333 L24.0523333,36.7668333 C25.488,36.5505 26.55,35.3115 26.55,33.8561667 L26.55,33.748 C27.4546667,34.1806667 28.4576667,34.4166667 29.5295,34.4166667 L29.7065,34.4166667 C30.68,34.4166667 31.6141667,34.2101667 32.45,33.8266667 L32.45,33.8561667 C32.45,35.3115 33.512,36.5505 34.9476667,36.7668333 L36.0785,36.9438333 Z" id="Path" fill="#F0D0B4"></path>
                <path d="M36.3833333,23.6 L36.3833333,27.7398333 C36.3833333,30.444 34.7706667,32.7745 32.45,33.8266667 C31.6141667,34.2101667 30.68,34.4166667 29.7065,34.4166667 L29.5295,34.4166667 C28.4576667,34.4166667 27.4546667,34.1806667 26.55,33.748 C24.2195,32.6368333 22.6166667,30.267 22.6166667,27.5333333 C22.6166667,25.3995 22.6166667,23.6 22.6166667,23.6 L24.0523333,23.3148333 C26.2845,22.8625 28.2413333,21.5546667 29.5,19.6666667 C30.1293333,20.6106667 30.9356667,21.4071667 31.86,22.0266667 C32.7843333,22.6461667 33.8266667,23.0886667 34.9476667,23.3148333 L36.3833333,23.6 Z" id="Path" fill="#F0D0B4"></path>
            </g>
            <g id="Group" fill="#000000">
                <path d="M57.8998226,40.4725161 C56.9789194,39.7828226 55.8976452,39.2987581 54.7681613,39.0724677 L51.964129,38.5116613 L51.6502742,37.2542742 C52.7453226,36.4652097 53.5570161,35.311129 53.9112097,33.9710968 L54.4110161,33.4949032 C55.4194839,32.5346452 56.1859194,31.3284194 56.6257097,30.0080645 C56.9169355,29.1363548 57.0645161,28.2262742 57.0645161,27.3043871 C57.0645161,25.3445161 56.3157903,23.5617419 55.0967742,22.2089194 L55.0967742,21.6451613 C55.0967742,19.1126774 53.4910968,16.9540645 51.2459032,16.1177742 C51.949371,15.4615323 52.4914839,14.6370484 52.8092742,13.7072903 C55.2059839,13.3786774 57.0645161,11.3400968 57.0645161,8.85483871 C57.0645161,6.14230645 54.8576935,3.93548387 52.1451613,3.93548387 C50.5375161,3.93548387 49.0705645,4.70683871 48.1545806,5.98390323 C47.8515484,5.93569355 47.5426129,5.90322581 47.2258065,5.90322581 C43.9701774,5.90322581 41.3225806,8.55082258 41.3225806,11.8064516 C41.3225806,13.5075645 42.0496613,15.0374839 43.2037419,16.1158065 C41.8892903,16.6018387 40.8001452,17.5424194 40.1193065,18.7594677 C39.6106452,18.0441935 39.0222903,17.3909032 38.3709677,16.8055 L38.3709677,15.7419355 C38.3709677,13.2094516 36.7652903,11.0508387 34.5200968,10.2145484 C35.6751613,9.13622581 36.4032258,7.60433871 36.4032258,5.90322581 C36.4032258,2.64759677 33.755629,-6.99082369e-15 30.5,-6.99082369e-15 C27.244371,-6.99082369e-15 24.5967742,2.64759677 24.5967742,5.90322581 C24.5967742,7.60433871 25.3248387,9.13622581 26.4799032,10.2145484 C24.2347097,11.0508387 22.6290323,13.2094516 22.6290323,15.7419355 L22.6290323,16.8055 C21.9777097,17.3909032 21.3893548,18.0432097 20.8806935,18.7584839 C20.198871,17.5424194 19.1107097,16.6008548 17.7952742,16.1148226 C18.9503387,15.0374839 19.6774194,13.5075645 19.6774194,11.8064516 C19.6774194,8.55082258 17.0298226,5.90322581 13.7741935,5.90322581 C10.5185645,5.90322581 7.87096774,8.55082258 7.87096774,11.8064516 C7.87096774,13.5075645 8.59903226,15.0384677 9.75409677,16.1167903 C8.113,16.7297419 6.80740323,18.0609194 6.23183871,19.756129 C4.91935484,20.0562097 3.93548387,21.2270161 3.93548387,22.6290323 L3.93548387,27.3043871 C3.93548387,28.2262742 4.08306452,29.1363548 4.37429032,30.0070806 C4.81408065,31.3284194 5.58051613,32.5346452 6.588,33.4939194 L7.08879032,33.9710968 C7.44298387,35.311129 8.25467742,36.4642258 9.34972581,37.2542742 L9.03587097,38.5116613 L6.23183871,39.0724677 C5.10333871,39.2977742 4.02108065,39.7828226 3.10116129,40.4725161 C1.15998387,41.9286452 -7.86467665e-15,44.247629 -7.86467665e-15,46.6738548 L-7.86467665e-15,61 L61,61 L61,46.6738548 C61,44.247629 59.8400161,41.9286452 57.8998226,40.4725161 Z M18.4918548,33.9720806 L18.6935484,33.7792419 L18.6935484,38.7182742 C18.605,38.7753387 18.5135,38.8284677 18.4269194,38.8884839 L16.5447742,38.5126452 L16.2309194,37.2552581 C17.3259677,36.4652097 18.1376613,35.3121129 18.4918548,33.9720806 L18.4918548,33.9720806 Z M15.9485484,40.3997097 L16.5683871,40.5236774 C16.2427258,40.8827903 15.9416613,41.2615806 15.6681452,41.6620161 L14.7472419,41.2015645 L15.9485484,40.3997097 Z M12.5158226,44.2741935 L12.0258548,42.8052742 L12.7903226,42.4225484 L14.7098548,43.3818226 C14.5809677,43.6730484 14.464871,43.9701774 14.3615645,44.2732097 L12.5158226,44.2732097 L12.5158226,44.2741935 Z M10.248,43.6937097 L10.743871,45.1823065 L10.4624839,45.7450806 L9.5465,44.0439677 L10.248,43.6937097 Z M12.4144839,46.2419355 L13.8932419,46.2419355 C13.8214194,46.7505968 13.7741935,47.267129 13.7741935,47.7954677 L13.7741935,48.2421452 L12.7903226,50.0691935 L11.6037742,47.8643387 L12.4144839,46.2419355 Z M13.7741935,52.3930968 L13.9778548,52.0152903 C14.296629,52.6715323 14.9646774,53.1290323 15.7419355,53.1290323 L15.7419355,59.0322581 L13.7741935,59.0322581 L13.7741935,52.3930968 Z M17.7096774,53.1290323 L20.0975323,53.1290323 C20.2215,53.5894839 20.3621935,54.046 20.5412581,54.4936613 L21.6451613,57.2534194 L21.6451613,59.0322581 L17.7096774,59.0322581 L17.7096774,53.1290323 Z M22.3683065,53.7626452 C21.8881774,52.5642903 21.6451613,51.3019839 21.6451613,50.0091774 C21.6451613,48.9210161 21.8202903,47.8456452 22.1626774,46.8135645 L22.577871,45.5689677 L20.7124516,44.9461774 L20.2962742,46.1907742 C19.886,47.4255323 19.6774194,48.7094839 19.6774194,50.0091774 C19.6774194,50.3958387 19.6961129,50.7795484 19.7325161,51.1612903 L15.7419355,51.1612903 L15.7419355,47.7954677 C15.7419355,43.393629 18.9001613,39.7129677 23.2508387,39.0429516 L23.3767742,39.0232742 L29.516129,50.4253548 L29.516129,59.0322581 L23.6129032,59.0322581 L23.6129032,56.8756129 L22.3683065,53.7626452 Z M30.5,22.2689355 C31.8705323,23.8106613 33.694629,24.8624194 35.7528871,25.2736774 L36.4032258,25.4035484 L36.4032258,28.7378871 C36.4032258,31.8793871 33.847129,34.4354839 30.7066129,34.4354839 L30.5334516,34.4354839 C27.2601129,34.4354839 24.5967742,31.7869032 24.5967742,28.5302903 L24.5967742,25.4035484 L25.2471129,25.2736774 C27.305371,24.8624194 29.1294677,23.8106613 30.5,22.2689355 Z M28.326629,36.0854355 C29.028129,36.2881129 29.7670161,36.4032258 30.5334516,36.4032258 L30.7066129,36.4032258 C31.392371,36.4032258 32.0535323,36.3038548 32.6871452,36.134629 C33.123,37.4136613 34.1954194,38.3896613 35.5698871,38.6867903 L33.6208387,42.3064516 L27.3791613,42.3064516 L25.4301129,38.6867903 C26.8222903,38.3857258 27.9025806,37.3880806 28.326629,36.0854355 L28.326629,36.0854355 Z M30.5,48.1024355 L28.4387903,44.2741935 L32.5612097,44.2741935 L30.5,48.1024355 Z M31.483871,50.4263387 L37.6242097,39.0242581 L37.7501452,39.0439355 C42.0998387,39.7129677 45.2580645,43.393629 45.2580645,47.7954677 L45.2580645,51.1612903 L41.2684677,51.1612903 C41.3038871,50.7795484 41.3225806,50.3958387 41.3225806,50.0091774 C41.3225806,48.7094839 41.114,47.4255323 40.7027419,46.1907742 L40.2875484,44.9461774 L38.422129,45.5689677 L38.8363387,46.8125806 C39.1797097,47.8456452 39.3548387,48.9210161 39.3548387,50.0091774 C39.3548387,51.301 39.1118226,52.5642903 38.6316935,53.7626452 L37.3870968,56.8756129 L37.3870968,59.0322581 L31.483871,59.0322581 L31.483871,50.4263387 Z M42.3064516,33.7792419 L42.5081452,33.9710968 C42.8623387,35.311129 43.6740323,36.4642258 44.7690806,37.2542742 L44.4552258,38.5116613 L42.5730806,38.8875 C42.4865,38.8274839 42.395,38.7743548 42.3064516,38.7172903 L42.3064516,33.7792419 Z M48.4841774,44.2741935 L46.6384355,44.2741935 C46.535129,43.9701774 46.4190323,43.6730484 46.2901452,43.3828065 L48.2096774,42.4225484 L48.9741452,42.8052742 L48.4841774,44.2741935 Z M45.3318548,41.6610323 C45.0573548,41.2605968 44.7562903,40.8818065 44.4316129,40.5226935 L45.0514516,40.3987258 L46.2537419,41.1995968 L45.3318548,41.6610323 Z M39.3548387,57.2534194 L40.4587419,54.4936613 C40.6378065,54.0469839 40.7794839,53.5894839 40.9024677,53.1290323 L43.2903226,53.1290323 L43.2903226,59.0322581 L39.3548387,59.0322581 L39.3548387,57.2534194 Z M45.2580645,53.1290323 C46.0353226,53.1290323 46.703371,52.6715323 47.0221452,52.0152903 L47.2258065,52.3930968 L47.2258065,59.0322581 L45.2580645,59.0322581 L45.2580645,53.1290323 Z M48.2096774,50.0691935 L47.2258065,48.2421452 L47.2258065,47.7954677 C47.2258065,47.267129 47.1785806,46.7505968 47.1057742,46.2419355 L48.5845323,46.2419355 L49.3962258,47.8653226 L48.2096774,50.0691935 Z M50.5375161,45.7460645 L50.256129,45.1832903 L50.752,43.6946935 L51.4535,44.0459355 L50.5375161,45.7460645 Z M53.2175806,40.7696452 L52.3871935,42.311371 L50.1665968,41.2005806 L51.3688871,40.3997097 L53.2175806,40.7696452 Z M50.0386935,38.9209516 L48.2096774,40.1399677 L46.3806613,38.9199677 L46.5764516,38.1358226 C47.0959355,38.2863548 47.6429677,38.3709677 48.2096774,38.3709677 C48.7763871,38.3709677 49.3234194,38.2863548 49.8429032,38.1358226 L50.0386935,38.9209516 Z M52.1451613,32.4677419 C52.1451613,34.6381613 50.3800968,36.4032258 48.2096774,36.4032258 C46.0392581,36.4032258 44.2741935,34.6381613 44.2741935,32.4677419 L44.2741935,30.6210161 C44.2741935,29.2642581 45.1941129,28.0865645 46.5105323,27.7579516 L46.5912097,27.7372903 C47.2376129,28.3689355 48.0807903,28.8047903 49.0243226,28.9395806 L51.3000161,29.2652419 C51.7821129,29.333129 52.1451613,29.7522581 52.1451613,30.2382903 L52.1451613,32.4677419 Z M54.7593065,29.3862581 C54.5989355,29.8663871 54.3785484,30.3258548 54.1129032,30.7558065 L54.1129032,30.2382903 C54.1129032,28.7792097 53.0237581,27.5228065 51.5794355,27.3171774 L49.3037419,26.9915161 C48.1181774,26.8222903 47.2258065,25.7931613 47.2258065,24.5967742 L45.2580645,24.5967742 C45.2580645,25.0896935 45.3416935,25.5678548 45.4961613,26.0155161 C43.5933548,26.7278387 42.3064516,28.5489839 42.3064516,30.6210161 L42.3064516,25.5806452 C42.3064516,25.1329839 42.2759516,24.6922097 42.2267581,24.2563548 C43.2647419,22.6428065 45.0544032,21.6451613 46.9818065,21.6451613 L49.4375484,21.6451613 C52.5583871,21.6451613 55.0967742,24.1845323 55.0967742,27.3043871 C55.0967742,28.0147419 54.983629,28.7142742 54.7593065,29.3862581 L54.7593065,29.3862581 Z M49.1935484,17.7096774 C49.1935484,18.7948871 48.3110161,19.6774194 47.2258065,19.6774194 C46.1405968,19.6774194 45.2580645,18.7948871 45.2580645,17.7096774 L49.1935484,17.7096774 Z M52.9519355,20.5422419 C52.2169839,20.1585323 51.4131613,19.8968226 50.5630968,19.7699032 C50.8484194,19.3094516 51.0333871,18.788 51.1081613,18.2281774 C51.9936452,18.727 52.6597258,19.5495161 52.9519355,20.5422419 L52.9519355,20.5422419 Z M47.2258065,15.7419355 C45.0553871,15.7419355 43.2903226,13.976871 43.2903226,11.8064516 L51.1612903,11.8064516 C51.1612903,13.976871 49.3962258,15.7419355 47.2258065,15.7419355 Z M52.1451613,5.90322581 C53.7724839,5.90322581 55.0967742,7.22751613 55.0967742,8.85483871 C55.0967742,10.1269839 54.2831129,11.2033387 53.1191935,11.6165645 C53.0513065,9.50616129 51.8745968,7.67419355 50.149871,6.68540323 C50.6850968,6.19248387 51.3875806,5.90322581 52.1451613,5.90322581 Z M47.2258065,7.87096774 C48.6760323,7.87096774 49.9314516,8.66790323 50.6142581,9.83870968 L43.8383387,9.83870968 C44.5201613,8.66790323 45.7755806,7.87096774 47.2258065,7.87096774 Z M43.3414839,18.2173548 C43.439871,18.971 43.7488065,19.6528226 44.2122097,20.2106774 C43.2735968,20.5786452 42.4136935,21.1266613 41.6846452,21.8291452 C41.5921613,21.5536613 41.4977097,21.2801452 41.3855484,21.0145 C41.5833065,19.7974516 42.3192419,18.788 43.3414839,18.2173548 L43.3414839,18.2173548 Z M36.3628871,15.3474032 C35.5039677,14.8535 34.5771613,14.4678226 33.6001774,14.2011935 C34.0143871,13.6659677 34.2888871,13.0274355 34.3823548,12.3249516 C35.4715,12.9388871 36.2310484,14.0457419 36.3628871,15.3474032 Z M28.5322581,11.8064516 L32.4677419,11.8064516 C32.4677419,12.8916613 31.5852097,13.7741935 30.5,13.7741935 C29.4147903,13.7741935 28.5322581,12.8916613 28.5322581,11.8064516 L28.5322581,11.8064516 Z M30.5,9.83870968 C28.3295806,9.83870968 26.5645161,8.07364516 26.5645161,5.90322581 L34.4354839,5.90322581 C34.4354839,8.07364516 32.6704194,9.83870968 30.5,9.83870968 L30.5,9.83870968 Z M30.5,1.96774194 C31.9502258,1.96774194 33.2056452,2.76467742 33.8884516,3.93548387 L27.1125323,3.93548387 C27.7943548,2.76467742 29.0497742,1.96774194 30.5,1.96774194 Z M26.6166613,12.3249516 C26.710129,13.0274355 26.984629,13.6659677 27.3988387,14.2011935 C26.4218548,14.4678226 25.4950484,14.8535 24.636129,15.3474032 C24.7689516,14.0457419 25.5275161,12.9388871 26.6166613,12.3249516 L26.6166613,12.3249516 Z M30.5,15.7419355 C35.9250645,15.7419355 40.3387097,20.1555806 40.3387097,25.5806452 L40.3387097,37.7186613 C39.6126129,37.4382581 38.8501129,37.2218065 38.0492419,37.0988226 L36.104129,36.7997258 C35.319,36.6787097 34.7149032,36.1129839 34.5132097,35.3809839 C36.8144839,34.0566935 38.3699839,31.5773387 38.3699839,28.7378871 L38.3699839,23.79 L36.1375806,23.3433226 C34.2426452,22.9645323 32.6045,21.8980161 31.4828871,20.3385806 L31.4828871,17.7096774 L29.5151452,17.7096774 L29.5151452,20.3385806 C28.3925484,21.8980161 26.7544032,22.9645323 24.8604516,23.3433226 L22.6290323,23.79 L22.6290323,28.5302903 C22.6290323,31.407129 24.1914194,33.9209194 26.5104032,35.2944032 C26.3352742,36.0687097 25.7124839,36.6737903 24.895871,36.7997258 L22.9507581,37.0988226 C22.1498871,37.2218065 21.3873871,37.4382581 20.6612903,37.7186613 L20.6612903,25.5806452 C20.6612903,20.1555806 25.0749355,15.7419355 30.5,15.7419355 L30.5,15.7419355 Z M19.6134677,21.0145 C19.5436129,21.1797903 19.4904839,21.3519677 19.4275161,21.5202097 C18.7063387,20.8551129 17.8523387,20.3543226 16.9235645,20.0444032 C17.3141613,19.5190161 17.5689839,18.8962258 17.6575323,18.216371 C18.6807581,18.7870161 19.4176774,19.7974516 19.6134677,21.0145 L19.6134677,21.0145 Z M11.8064516,17.7096774 L15.7419355,17.7096774 C15.7419355,18.7948871 14.8594032,19.6774194 13.7741935,19.6774194 C12.6889839,19.6774194 11.8064516,18.7948871 11.8064516,17.7096774 Z M13.7741935,15.7419355 C11.6037742,15.7419355 9.83870968,13.976871 9.83870968,11.8064516 L17.7096774,11.8064516 C17.7096774,13.976871 15.9446129,15.7419355 13.7741935,15.7419355 Z M13.7741935,7.87096774 C15.2244194,7.87096774 16.4798387,8.66790323 17.1626452,9.83870968 L10.3867258,9.83870968 C11.0685484,8.66790323 12.3239677,7.87096774 13.7741935,7.87096774 Z M9.88987097,18.2134194 C9.95874194,18.7427419 10.1289516,19.2356613 10.3867258,19.6774194 L8.40520968,19.6774194 C8.76235484,19.0634839 9.27495161,18.5567903 9.88987097,18.2134194 L9.88987097,18.2134194 Z M6.24069355,29.3852742 C6.01637097,28.7142742 5.90322581,28.0147419 5.90322581,27.3043871 L5.90322581,22.6290323 C5.90322581,22.0869194 6.344,21.6451613 6.88709677,21.6451613 L14.7580645,21.6451613 C16.3971935,21.6451613 17.9271129,22.4804677 18.8371935,23.8332903 C18.7525806,24.4049194 18.6935484,24.9854032 18.6935484,25.5806452 L18.6935484,30.6210161 C18.6935484,28.5489839 17.4066452,26.7268548 15.5038387,26.0155161 C15.6583065,25.5678548 15.7419355,25.0896935 15.7419355,24.5967742 L13.7741935,24.5967742 C13.7741935,25.7931613 12.8818226,26.8222903 11.6972419,26.9925 L9.42154839,27.3181613 C7.97624194,27.5237903 6.88709677,28.7792097 6.88709677,30.2382903 L6.88709677,30.7558065 C6.62145161,30.324871 6.40106452,29.8663871 6.24069355,29.3852742 L6.24069355,29.3852742 Z M8.85483871,30.2382903 C8.85483871,29.7522581 9.2178871,29.333129 9.699,29.2642581 L11.9746935,28.9385968 C12.9182258,28.8038065 13.7604194,28.3669677 14.4078065,27.7363065 L14.4894677,27.7569677 C15.8058871,28.0865645 16.7258065,29.2642581 16.7258065,30.6210161 L16.7258065,32.4677419 C16.7258065,34.6381613 14.9607419,36.4032258 12.7903226,36.4032258 C10.6199032,36.4032258 8.85483871,34.6381613 8.85483871,32.4677419 L8.85483871,30.2382903 Z M12.7903226,38.3709677 C13.3570323,38.3709677 13.9040645,38.2863548 14.4235484,38.1358226 L14.6193387,38.9199677 L12.7903226,40.1399677 L10.9613065,38.9199677 L11.1570968,38.1358226 C11.6765806,38.2863548 12.2236129,38.3709677 12.7903226,38.3709677 Z M9.63209677,40.3997097 L10.8343871,41.2005806 L8.61379032,42.311371 L7.78241935,40.7696452 L9.63209677,40.3997097 Z M1.96774194,46.6738548 C1.96774194,44.8625484 2.83256452,43.1329032 4.28279032,42.0457258 C4.74225806,41.701371 5.25780645,41.4327742 5.79991935,41.2379677 L11.8064516,52.3940806 L11.8064516,59.0322581 L5.90322581,59.0322581 L5.90322581,48.2096774 L3.93548387,48.2096774 L3.93548387,59.0322581 L1.96774194,59.0322581 L1.96774194,46.6738548 Z M59.0322581,59.0322581 L57.0645161,59.0322581 L57.0645161,48.2096774 L55.0967742,48.2096774 L55.0967742,59.0322581 L49.1935484,59.0322581 L49.1935484,52.3940806 L55.2000806,41.2389516 C55.7421935,41.4337581 56.2587258,41.7023548 56.7181935,42.0467097 C58.1674355,43.1329032 59.0322581,44.8635323 59.0322581,46.6738548 L59.0322581,59.0322581 Z" id="Shape"></path>
                <path d="M30.5,32.4677419 C32.0889516,32.4677419 33.5175323,31.5852097 34.2278871,30.1635161 L34.3311935,29.9559194 L32.5710484,29.0753548 L32.4677419,29.2839355 C32.0928871,30.0336452 31.3392419,30.5 30.5,30.5 C29.6607581,30.5 28.9071129,30.0336452 28.5322581,29.2839355 L28.4289516,29.0763387 L26.6688065,29.9569032 L26.7721129,30.1635161 C27.4824677,31.5852097 28.9110484,32.4677419 30.5,32.4677419 Z" id="Path"></path>
            </g>
        </g>
    </g>
</svg>