<?xml version="1.0" encoding="UTF-8"?>
<svg width="303px" height="303px" viewBox="0 0 303 303" version="1.1" xmlns="http://www.w3.org/2000/svg" xmlns:xlink="http://www.w3.org/1999/xlink">
    <!-- Generator: Sketch 63.1 (92452) - https://sketch.com -->
    <title>sun</title>
    <desc>Created with Sketch.</desc>
    <g id="Page-1" stroke="none" stroke-width="1" fill="none" fill-rule="evenodd">
        <g id="sun" fill="#EEEEEE" fill-rule="nonzero">
            <path d="M204.8,97.6 C191.2,84 172,75.2 151.2,75.2 C130.4,75.2 111.2,83.6 97.6,97.6 C84,111.2 75.2,130.4 75.2,151.2 C75.2,172 84,191.2 97.6,204.8 C111.2,218.4 130.4,227.2 151.2,227.2 C172,227.2 191.2,218.8 204.8,204.8 C218.4,191.2 227.2,172 227.2,151.2 C227.2,130.4 218.8,111.2 204.8,97.6 Z M190.4,190.4 C180.4,200.4 166.4,206.4 151.2,206.4 C136,206.4 122,200.4 112,190.4 C102,180.4 96,166.4 96,151.2 C96,136 102,122 112,112 C122,102 136,96 151.2,96 C166.4,96 180.4,102 190.4,112 C200.4,122 206.4,136 206.4,151.2 C206.4,166.4 200.4,180.4 190.4,190.4 Z" id="Shape"></path>
            <path d="M292,140.8 L261.2,140.8 C255.6,140.8 250.8,145.6 250.8,151.2 C250.8,156.8 255.6,161.6 261.2,161.6 L292,161.6 C297.6,161.6 302.4,156.8 302.4,151.2 C302.4,145.6 297.6,140.8 292,140.8 Z" id="Path"></path>
            <path d="M151.2,250.8 C145.6,250.8 140.8,255.6 140.8,261.2 L140.8,292 C140.8,297.6 145.6,302.4 151.2,302.4 C156.8,302.4 161.6,297.6 161.6,292 L161.6,261.2 C161.6,255.6 156.8,250.8 151.2,250.8 Z" id="Path"></path>
            <path d="M258,243.6 L236,221.6 C232.4,217.6 225.6,217.6 221.6,221.6 C217.6,225.6 217.6,232 221.6,236 L243.6,258 C247.6,262 254,262 258,258 C262,254 262,247.6 258,243.6 Z" id="Path"></path>
            <path d="M151.2,0 C145.6,0 140.8,4.8 140.8,10.4 L140.8,41.2 C140.8,46.8 145.6,51.6 151.2,51.6 C156.8,51.6 161.6,46.8 161.6,41.2 L161.6,10.4 C161.6,4.8 156.8,0 151.2,0 Z" id="Path"></path>
            <path d="M258.4,44.4 C254.4,40.4 248,40.4 244,44.4 L222,66.4 C218,70.4 218,76.8 222,80.8 C225.6,84.8 232.4,84.8 236.4,80.8 L258.4,58.8 C262.4,54.8 262.4,48.4 258.4,44.4 Z" id="Path"></path>
            <path d="M41.2,140.8 L10.4,140.8 C4.8,140.8 0,145.6 0,151.2 C0,156.8 4.4,161.6 10.4,161.6 L41.2,161.6 C46.8,161.6 51.6,156.8 51.6,151.2 C51.6,145.6 46.8,140.8 41.2,140.8 Z" id="Path"></path>
            <path d="M80.4,221.6 C76.8,217.6 70,217.6 66,221.6 L44,243.6 C40,247.6 40,254 44,258 C48,262 54.4,262 58.4,258 L80.4,236 C84.4,232 84.4,225.6 80.4,221.6 Z" id="Path"></path>
            <path d="M80.4,66.4 L58.4,44.4 C54.4,40.4 48,40.4 44,44.4 C40,48.4 40,54.8 44,58.8 L66,80.8 C70,84.8 76.4,84.8 80.4,80.8 C84.4,76.8 84.4,70.4 80.4,66.4 Z" id="Path"></path>
        </g>
    </g>
</svg>