<?xml version="1.0" encoding="UTF-8"?>
<svg width="148px" height="148px" viewBox="0 0 148 148" version="1.1" xmlns="http://www.w3.org/2000/svg" xmlns:xlink="http://www.w3.org/1999/xlink">
    <!-- Generator: Sketch 64 (93537) - https://sketch.com -->
    <title>Artboard</title>
    <desc>Created with Sketch.</desc>
    <g id="Artboard" stroke="none" stroke-width="1" fill="none" fill-rule="evenodd">
        <rect fill="#F9F9F9" x="0" y="0" width="148" height="148"></rect>
        <g id="content" opacity="0.76" transform="translate(44.000000, 50.000000)" fill-rule="nonzero">
            <g id="Group" transform="translate(2.000000, 2.000000)">
                <path d="M57,9.2 L57,43.7 C57,44.97075 55.9631098,46 54.6829268,46 L2.31707317,46 C1.03689024,46 0,44.97075 0,43.7 L0,9.2 L57,9.2 Z" id="Path" fill="#FFFFFF"></path>
                <path d="M57,2.3 L57,9.2 L0,9.2 L0,2.3 C0,1.02925 1.03689024,0 2.31707317,0 L54.6829268,0 C55.9631098,0 57,1.02925 57,2.3 Z" id="Path" fill="#697C86"></path>
                <rect id="Rectangle" fill="#FF765B" x="35.4512195" y="34.5" width="4.63414634" height="4.6"></rect>
                <rect id="Rectangle" fill="#FF765B" x="35.4512195" y="25.3" width="4.63414634" height="4.6"></rect>
                <rect id="Rectangle" fill="#FF765B" x="35.4512195" y="16.1" width="4.63414634" height="4.6"></rect>
                <polygon id="Path" fill="#FF765B" points="28.5 16.1 28.5 39.1 4.63414634 39.1 4.63414634 16.1"></polygon>
                <polygon id="Path" fill="#FFFFFF" points="21.2012195 27.6 11.9329268 33.35 11.9329268 21.85"></polygon>
            </g>
            <g id="Group" fill="#000000">
                <path d="M39.375,7 C40.021875,7 40.546875,6.47733333 40.546875,5.83333333 C40.546875,5.18933333 40.021875,4.66666667 39.375,4.66666667 C38.728125,4.66666667 38.203125,5.18933333 38.203125,5.83333333 C38.203125,6.47733333 38.728125,7 39.375,7 Z" id="Path"></path>
                <path d="M17.9296875,7 C18.5765625,7 19.1015625,6.47733333 19.1015625,5.83333333 C19.1015625,5.18933333 18.5765625,4.66666667 17.9296875,4.66666667 C17.2828125,4.66666667 16.7578125,5.18933333 16.7578125,5.83333333 C16.7578125,6.47733333 17.2828125,7 17.9296875,7 Z" id="Path"></path>
                <path d="M13.2421875,7 C13.8890625,7 14.4140625,6.47733333 14.4140625,5.83333333 C14.4140625,5.18933333 13.8890625,4.66666667 13.2421875,4.66666667 C12.5953125,4.66666667 12.0703125,5.18933333 12.0703125,5.83333333 C12.0703125,6.47733333 12.5953125,7 13.2421875,7 Z" id="Path"></path>
                <path d="M8.5546875,7 C9.2015625,7 9.7265625,6.47733333 9.7265625,5.83333333 C9.7265625,5.18933333 9.2015625,4.66666667 8.5546875,4.66666667 C7.9078125,4.66666667 7.3828125,5.18933333 7.3828125,5.83333333 C7.3828125,6.47733333 7.9078125,7 8.5546875,7 Z" id="Path"></path>
                <path d="M56.484375,0 L3.515625,0 C1.57710938,0 0,1.5701 0,3.5 L0,45.5 C0,47.4299 1.57710938,49 3.515625,49 L56.484375,49 C58.4228906,49 60,47.4299 60,45.5 L60,3.5 C60,1.5701 58.4228906,0 56.484375,0 Z M3.515625,2.33333333 L56.484375,2.33333333 C57.1305469,2.33333333 57.65625,2.8567 57.65625,3.5 L57.65625,9.33333333 L2.34375,9.33333333 L2.34375,3.5 C2.34375,2.8567 2.86945313,2.33333333 3.515625,2.33333333 Z M56.484375,46.6666667 L3.515625,46.6666667 C2.86945313,46.6666667 2.34375,46.1433 2.34375,45.5 L2.34375,11.6666667 L57.65625,11.6666667 L57.65625,45.5 C57.65625,46.1433 57.1305469,46.6666667 56.484375,46.6666667 Z" id="Shape"></path>
                <path d="M44.0625,7 L51.796875,7 C52.4439844,7 52.96875,6.47756667 52.96875,5.83333333 C52.96875,5.1891 52.4439844,4.66666667 51.796875,4.66666667 L44.0625,4.66666667 C43.4153906,4.66666667 42.890625,5.1891 42.890625,5.83333333 C42.890625,6.47756667 43.4153906,7 44.0625,7 Z" id="Path"></path>
                <path d="M30,16.3333333 L5.859375,16.3333333 C5.21214844,16.3333333 4.6875,16.8557667 4.6875,17.5 L4.6875,40.8333333 C4.6875,41.4775667 5.21214844,42 5.859375,42 L30,42 C30.6471094,42 31.171875,41.4775667 31.171875,40.8333333 L31.171875,17.5 C31.171875,16.8557667 30.6471094,16.3333333 30,16.3333333 Z M28.828125,39.6666667 L7.03125,39.6666667 L7.03125,18.6666667 L28.828125,18.6666667 L28.828125,39.6666667 Z" id="Shape"></path>
                <path d="M12.6740625,36.0203667 C13.0408594,36.2230167 13.4964844,36.2174167 13.8631641,35.9893333 L23.2381641,30.156 C23.5808203,29.9427333 23.7889453,29.5689333 23.7889453,29.1666667 C23.7889453,28.7644 23.5808203,28.3906 23.2381641,28.1773333 L13.8631641,22.344 C13.5019922,22.1193 13.0466016,22.1074 12.6740625,22.3129667 C12.3014062,22.5185333 12.0703125,22.9091333 12.0703125,23.3333333 L12.0703125,35 C12.0703125,35.4242 12.3015234,35.8148 12.6740625,36.0203667 Z M14.4140625,25.43835 L20.4060938,29.1666667 L14.4140625,32.8949833 L14.4140625,25.43835 Z" id="Shape"></path>
                <path d="M41.71875,16.3333333 L37.03125,16.3333333 C36.3841406,16.3333333 35.859375,16.8557667 35.859375,17.5 L35.859375,22.1666667 C35.859375,22.8109 36.3841406,23.3333333 37.03125,23.3333333 L41.71875,23.3333333 C42.3658594,23.3333333 42.890625,22.8109 42.890625,22.1666667 L42.890625,17.5 C42.890625,16.8557667 42.3658594,16.3333333 41.71875,16.3333333 Z M40.546875,21 L38.203125,21 L38.203125,18.6666667 L40.546875,18.6666667 L40.546875,21 Z" id="Shape"></path>
                <path d="M54.140625,18.6666667 L46.40625,18.6666667 C45.7591406,18.6666667 45.234375,19.1891 45.234375,19.8333333 C45.234375,20.4775667 45.7591406,21 46.40625,21 L54.140625,21 C54.7877344,21 55.3125,20.4775667 55.3125,19.8333333 C55.3125,19.1891 54.7877344,18.6666667 54.140625,18.6666667 Z" id="Path"></path>
                <path d="M41.71875,25.6666667 L37.03125,25.6666667 C36.3841406,25.6666667 35.859375,26.1891 35.859375,26.8333333 L35.859375,31.5 C35.859375,32.1442333 36.3841406,32.6666667 37.03125,32.6666667 L41.71875,32.6666667 C42.3658594,32.6666667 42.890625,32.1442333 42.890625,31.5 L42.890625,26.8333333 C42.890625,26.1891 42.3658594,25.6666667 41.71875,25.6666667 Z M40.546875,30.3333333 L38.203125,30.3333333 L38.203125,28 L40.546875,28 L40.546875,30.3333333 Z" id="Shape"></path>
                <path d="M54.140625,28 L46.40625,28 C45.7591406,28 45.234375,28.5224333 45.234375,29.1666667 C45.234375,29.8109 45.7591406,30.3333333 46.40625,30.3333333 L54.140625,30.3333333 C54.7877344,30.3333333 55.3125,29.8109 55.3125,29.1666667 C55.3125,28.5224333 54.7877344,28 54.140625,28 Z" id="Path"></path>
                <path d="M41.71875,35 L37.03125,35 C36.3841406,35 35.859375,35.5224333 35.859375,36.1666667 L35.859375,40.8333333 C35.859375,41.4775667 36.3841406,42 37.03125,42 L41.71875,42 C42.3658594,42 42.890625,41.4775667 42.890625,40.8333333 L42.890625,36.1666667 C42.890625,35.5224333 42.3658594,35 41.71875,35 Z M40.546875,39.6666667 L38.203125,39.6666667 L38.203125,37.3333333 L40.546875,37.3333333 L40.546875,39.6666667 Z" id="Shape"></path>
                <path d="M54.140625,37.3333333 L46.40625,37.3333333 C45.7591406,37.3333333 45.234375,37.8557667 45.234375,38.5 C45.234375,39.1442333 45.7591406,39.6666667 46.40625,39.6666667 L54.140625,39.6666667 C54.7877344,39.6666667 55.3125,39.1442333 55.3125,38.5 C55.3125,37.8557667 54.7877344,37.3333333 54.140625,37.3333333 Z" id="Path"></path>
            </g>
        </g>
    </g>
</svg>